<?xml version="1.0" encoding="utf-8"?>
<svg viewBox="0 0 500 500" xmlns="http://www.w3.org/2000/svg">
  <g transform="matrix(1, 0, 0, 1, -5.581386, -6.000004)">
    <g>
      <circle class="st0" cx="256" cy="256" r="250" style="fill: rgb(52, 178, 151);"/>
    </g>
    <path class="st1" d="M 506 259.7 C 505.8 259.4 505.6 259.2 505.3 258.9 C 469.3 223 433.4 187.1 397.5 151.2 C 396.4 150.1 395.3 149.1 394.2 148.1 C 386.4 141.6 377.2 139 367.2 140 C 358.7 140.9 351.4 144.7 345.3 150.8 C 302.3 193.9 248.2 250.9 205.2 294 C 203.1 296 203.7 296.1 201.6 294 C 186.8 279.2 172 264.3 157.1 249.6 C 147.5 240.1 135.9 236.9 122.8 239.9 C 107.8 243.3 96.4 257.3 95.8 272.7 C 95.4 283.6 99.2 292.8 106.9 300.5 C 176.3 370 236.8 430.5 306.2 500 C 306.5 500.3 306.8 500.6 307.1 500.7 C 415.795 479.702 501.393 383.128 506 259.7 Z" style="fill: rgb(21, 160, 133);"/>
    <path class="st2" d="M 203.5 386.6 C 197.5 386.6 191.4 384.3 186.8 379.7 L 106.4 299.3 C 92.5 285.4 92.5 262.8 106.4 248.9 C 120.3 235 142.9 235 156.8 248.9 L 203.5 295.6 L 345.2 149.9 C 359.1 136 381.7 136 395.6 149.9 C 409.5 163.8 409.5 186.4 395.6 200.3 L 220.2 379.6 C 215.6 384.3 209.6 386.6 203.5 386.6 Z" style="fill: rgb(255, 255, 255);"/>
  </g>
</svg>